<mxfile host="app.diagrams.net" modified="2022-02-28T02:48:24.936Z" agent="5.0 (Windows)" etag="k91HxOag3nkiioI7_6rG" version="16.6.4" type="github">
  <diagram id="QJjx0-fPxzvcmYibJWj1" name="Page-1">
    <mxGraphModel dx="1563" dy="676" grid="1" gridSize="6" guides="1" tooltips="1" connect="1" arrows="1" fold="1" page="0" pageScale="1" pageWidth="1169" pageHeight="827" math="0" shadow="0">
      <root>
        <mxCell id="0" />
        <mxCell id="1" parent="0" />
        <mxCell id="4f-DMQIj-ya-iA7LCkDa-31" value="&lt;b&gt;conv2D 1&lt;br&gt;&lt;/b&gt;" style="text;html=1;strokeColor=none;fillColor=none;align=center;verticalAlign=middle;whiteSpace=wrap;rounded=0;" parent="1" vertex="1">
          <mxGeometry x="-47" y="78" width="71" height="30" as="geometry" />
        </mxCell>
        <mxCell id="4f-DMQIj-ya-iA7LCkDa-38" value="&lt;div&gt;conv: 1 x 30&lt;/div&gt;&lt;div&gt;20 Kernels&lt;br&gt;&lt;/div&gt;" style="text;html=1;strokeColor=none;fillColor=none;align=center;verticalAlign=middle;whiteSpace=wrap;rounded=0;" parent="1" vertex="1">
          <mxGeometry x="-96" y="396" width="99" height="30" as="geometry" />
        </mxCell>
        <mxCell id="VNNIAKbgCR-motXrMLgF-2" value="" style="shape=cube;whiteSpace=wrap;html=1;boundedLbl=1;backgroundOutline=1;darkOpacity=0.05;darkOpacity2=0.1;size=70;direction=east;flipH=1;fillColor=#ffe6cc;strokeColor=#99004D;opacity=90;" vertex="1" parent="1">
          <mxGeometry x="-66" y="126" width="78" height="184" as="geometry" />
        </mxCell>
        <mxCell id="VNNIAKbgCR-motXrMLgF-8" value="" style="shape=cube;whiteSpace=wrap;html=1;boundedLbl=1;backgroundOutline=1;darkOpacity=0.05;darkOpacity2=0.1;size=70;direction=east;flipH=1;fillColor=#ffe6cc;strokeColor=#99004D;opacity=90;" vertex="1" parent="1">
          <mxGeometry x="-54" y="132" width="78" height="184" as="geometry" />
        </mxCell>
        <mxCell id="VNNIAKbgCR-motXrMLgF-9" value="" style="shape=cube;whiteSpace=wrap;html=1;boundedLbl=1;backgroundOutline=1;darkOpacity=0.05;darkOpacity2=0.1;size=70;direction=east;flipH=1;fillColor=#ffe6cc;strokeColor=#99004D;opacity=90;" vertex="1" parent="1">
          <mxGeometry x="-42" y="138" width="78" height="184" as="geometry" />
        </mxCell>
        <mxCell id="VNNIAKbgCR-motXrMLgF-14" value="" style="shape=cube;whiteSpace=wrap;html=1;boundedLbl=1;backgroundOutline=1;darkOpacity=0.05;darkOpacity2=0.1;size=70;direction=east;flipH=1;fillColor=#ffe6cc;strokeColor=#99004D;opacity=90;" vertex="1" parent="1">
          <mxGeometry x="-27" y="192" width="24" height="35" as="geometry" />
        </mxCell>
        <mxCell id="VNNIAKbgCR-motXrMLgF-17" value="" style="endArrow=none;dashed=1;html=1;rounded=0;entryX=0;entryY=0;entryDx=24;entryDy=29.5;entryPerimeter=0;exitX=0;exitY=0;exitDx=46;exitDy=40;exitPerimeter=0;opacity=90;strokeColor=#99004D;" edge="1" parent="1" source="VNNIAKbgCR-motXrMLgF-19" target="VNNIAKbgCR-motXrMLgF-14">
          <mxGeometry width="50" height="50" relative="1" as="geometry">
            <mxPoint x="24" y="368" as="sourcePoint" />
            <mxPoint x="74" y="318" as="targetPoint" />
          </mxGeometry>
        </mxCell>
        <mxCell id="VNNIAKbgCR-motXrMLgF-18" value="" style="endArrow=none;dashed=1;html=1;rounded=0;entryX=0;entryY=0;entryDx=0;entryDy=6;entryPerimeter=0;exitX=0.772;exitY=0.168;exitDx=0;exitDy=0;exitPerimeter=0;opacity=90;strokeColor=#99004D;" edge="1" parent="1" source="VNNIAKbgCR-motXrMLgF-19" target="VNNIAKbgCR-motXrMLgF-14">
          <mxGeometry width="50" height="50" relative="1" as="geometry">
            <mxPoint x="48" y="332" as="sourcePoint" />
            <mxPoint x="98" y="282" as="targetPoint" />
          </mxGeometry>
        </mxCell>
        <mxCell id="VNNIAKbgCR-motXrMLgF-19" value="" style="shape=cube;whiteSpace=wrap;html=1;boundedLbl=1;backgroundOutline=1;darkOpacity=0.05;darkOpacity2=0.1;size=40;direction=east;flipH=1;fillColor=#ffe6cc;strokeColor=#99004D;opacity=90;" vertex="1" parent="1">
          <mxGeometry x="60" y="153.47" width="46" height="184.94" as="geometry" />
        </mxCell>
        <mxCell id="VNNIAKbgCR-motXrMLgF-86" value="" style="shape=cube;whiteSpace=wrap;html=1;boundedLbl=1;backgroundOutline=1;darkOpacity=0.05;darkOpacity2=0.1;size=40;direction=east;flipH=1;fillColor=#ffe6cc;strokeColor=#99004D;opacity=90;" vertex="1" parent="1">
          <mxGeometry x="70.5" y="159.78" width="46" height="184.94" as="geometry" />
        </mxCell>
        <mxCell id="VNNIAKbgCR-motXrMLgF-87" value="" style="shape=cube;whiteSpace=wrap;html=1;boundedLbl=1;backgroundOutline=1;darkOpacity=0.05;darkOpacity2=0.1;size=40;direction=east;flipH=1;fillColor=#ffe6cc;strokeColor=#99004D;opacity=90;" vertex="1" parent="1">
          <mxGeometry x="82.5" y="167.59" width="46" height="184.94" as="geometry" />
        </mxCell>
        <mxCell id="VNNIAKbgCR-motXrMLgF-91" value="" style="shape=cube;whiteSpace=wrap;html=1;boundedLbl=1;backgroundOutline=1;darkOpacity=0.05;darkOpacity2=0.1;size=70;direction=east;flipH=1;fillColor=#ffe6cc;strokeColor=#99004D;opacity=90;" vertex="1" parent="1">
          <mxGeometry x="93.5" y="206.5" width="24" height="35" as="geometry" />
        </mxCell>
        <mxCell id="VNNIAKbgCR-motXrMLgF-95" value="&lt;b&gt;conv2D 2&lt;br&gt;&lt;/b&gt;" style="text;html=1;strokeColor=none;fillColor=none;align=center;verticalAlign=middle;whiteSpace=wrap;rounded=0;" vertex="1" parent="1">
          <mxGeometry x="60" y="78" width="71" height="30" as="geometry" />
        </mxCell>
        <mxCell id="VNNIAKbgCR-motXrMLgF-96" value="&lt;div&gt;conv: 1 x 30&lt;/div&gt;&lt;div&gt;20 Kernels&lt;br&gt;&lt;/div&gt;" style="text;html=1;strokeColor=none;fillColor=none;align=center;verticalAlign=middle;whiteSpace=wrap;rounded=0;" vertex="1" parent="1">
          <mxGeometry x="42" y="396" width="99" height="30" as="geometry" />
        </mxCell>
        <mxCell id="VNNIAKbgCR-motXrMLgF-97" value="" style="group;" vertex="1" connectable="0" parent="1">
          <mxGeometry x="324" y="169.09" width="133" height="169.32" as="geometry" />
        </mxCell>
        <mxCell id="VNNIAKbgCR-motXrMLgF-73" value="" style="group;fillColor=#d5e8d4;strokeColor=#82b366;" vertex="1" connectable="0" parent="VNNIAKbgCR-motXrMLgF-97">
          <mxGeometry x="115" y="48" width="18" height="56.44" as="geometry" />
        </mxCell>
        <mxCell id="VNNIAKbgCR-motXrMLgF-74" value="" style="verticalLabelPosition=bottom;verticalAlign=top;html=1;shape=mxgraph.basic.rect;fillColor2=none;strokeWidth=1;size=20;indent=0;gradientColor=none;" vertex="1" parent="VNNIAKbgCR-motXrMLgF-73">
          <mxGeometry y="18.439999999999998" width="18" height="19" as="geometry" />
        </mxCell>
        <mxCell id="VNNIAKbgCR-motXrMLgF-75" value="" style="verticalLabelPosition=bottom;verticalAlign=top;html=1;shape=mxgraph.basic.rect;fillColor2=none;strokeWidth=1;size=20;indent=0;fillColor=#dae8fc;strokeColor=#6c8ebf;" vertex="1" parent="VNNIAKbgCR-motXrMLgF-73">
          <mxGeometry width="18" height="19" as="geometry" />
        </mxCell>
        <mxCell id="VNNIAKbgCR-motXrMLgF-76" value="" style="verticalLabelPosition=bottom;verticalAlign=top;html=1;shape=mxgraph.basic.rect;fillColor2=none;strokeWidth=1;size=2;indent=0;fillColor=#fff2cc;strokeColor=#d6b656;" vertex="1" parent="VNNIAKbgCR-motXrMLgF-73">
          <mxGeometry y="37.44" width="18" height="19" as="geometry" />
        </mxCell>
        <mxCell id="VNNIAKbgCR-motXrMLgF-85" value="" style="group" vertex="1" connectable="0" parent="VNNIAKbgCR-motXrMLgF-97">
          <mxGeometry width="18" height="169.32" as="geometry" />
        </mxCell>
        <mxCell id="VNNIAKbgCR-motXrMLgF-72" value="" style="group" vertex="1" connectable="0" parent="VNNIAKbgCR-motXrMLgF-85">
          <mxGeometry y="56.44" width="18" height="56.44" as="geometry" />
        </mxCell>
        <mxCell id="VNNIAKbgCR-motXrMLgF-61" value="" style="verticalLabelPosition=bottom;verticalAlign=top;html=1;shape=mxgraph.basic.rect;fillColor2=none;strokeWidth=1;size=20;indent=0;gradientColor=none;" vertex="1" parent="VNNIAKbgCR-motXrMLgF-72">
          <mxGeometry y="18.439999999999998" width="18" height="19" as="geometry" />
        </mxCell>
        <mxCell id="VNNIAKbgCR-motXrMLgF-62" value="" style="verticalLabelPosition=bottom;verticalAlign=top;html=1;shape=mxgraph.basic.rect;fillColor2=none;strokeWidth=1;size=20;indent=0;gradientColor=none;" vertex="1" parent="VNNIAKbgCR-motXrMLgF-72">
          <mxGeometry width="18" height="19" as="geometry" />
        </mxCell>
        <mxCell id="VNNIAKbgCR-motXrMLgF-63" value="" style="verticalLabelPosition=bottom;verticalAlign=top;html=1;shape=mxgraph.basic.rect;fillColor2=none;strokeWidth=1;size=2;indent=0;gradientColor=none;" vertex="1" parent="VNNIAKbgCR-motXrMLgF-72">
          <mxGeometry y="37.44" width="18" height="19" as="geometry" />
        </mxCell>
        <mxCell id="VNNIAKbgCR-motXrMLgF-77" value="" style="group" vertex="1" connectable="0" parent="VNNIAKbgCR-motXrMLgF-85">
          <mxGeometry y="112.88" width="18" height="56.44" as="geometry" />
        </mxCell>
        <mxCell id="VNNIAKbgCR-motXrMLgF-78" value="" style="verticalLabelPosition=bottom;verticalAlign=top;html=1;shape=mxgraph.basic.rect;fillColor2=none;strokeWidth=1;size=20;indent=0;gradientColor=none;" vertex="1" parent="VNNIAKbgCR-motXrMLgF-77">
          <mxGeometry y="18.439999999999998" width="18" height="19" as="geometry" />
        </mxCell>
        <mxCell id="VNNIAKbgCR-motXrMLgF-79" value="" style="verticalLabelPosition=bottom;verticalAlign=top;html=1;shape=mxgraph.basic.rect;fillColor2=none;strokeWidth=1;size=20;indent=0;gradientColor=none;" vertex="1" parent="VNNIAKbgCR-motXrMLgF-77">
          <mxGeometry width="18" height="19" as="geometry" />
        </mxCell>
        <mxCell id="VNNIAKbgCR-motXrMLgF-80" value="" style="verticalLabelPosition=bottom;verticalAlign=top;html=1;shape=mxgraph.basic.rect;fillColor2=none;strokeWidth=1;size=2;indent=0;gradientColor=none;" vertex="1" parent="VNNIAKbgCR-motXrMLgF-77">
          <mxGeometry y="37.44" width="18" height="19" as="geometry" />
        </mxCell>
        <mxCell id="VNNIAKbgCR-motXrMLgF-81" value="" style="group" vertex="1" connectable="0" parent="VNNIAKbgCR-motXrMLgF-85">
          <mxGeometry width="18" height="56.44" as="geometry" />
        </mxCell>
        <mxCell id="VNNIAKbgCR-motXrMLgF-82" value="" style="verticalLabelPosition=bottom;verticalAlign=top;html=1;shape=mxgraph.basic.rect;fillColor2=none;strokeWidth=1;size=20;indent=0;gradientColor=none;" vertex="1" parent="VNNIAKbgCR-motXrMLgF-81">
          <mxGeometry y="18.439999999999998" width="18" height="19" as="geometry" />
        </mxCell>
        <mxCell id="VNNIAKbgCR-motXrMLgF-83" value="" style="verticalLabelPosition=bottom;verticalAlign=top;html=1;shape=mxgraph.basic.rect;fillColor2=none;strokeWidth=1;size=20;indent=0;gradientColor=none;" vertex="1" parent="VNNIAKbgCR-motXrMLgF-81">
          <mxGeometry width="18" height="19" as="geometry" />
        </mxCell>
        <mxCell id="VNNIAKbgCR-motXrMLgF-84" value="" style="verticalLabelPosition=bottom;verticalAlign=top;html=1;shape=mxgraph.basic.rect;fillColor2=none;strokeWidth=1;size=2;indent=0;gradientColor=none;" vertex="1" parent="VNNIAKbgCR-motXrMLgF-81">
          <mxGeometry y="37.44" width="18" height="19" as="geometry" />
        </mxCell>
        <mxCell id="VNNIAKbgCR-motXrMLgF-93" value="" style="endArrow=none;dashed=1;html=1;rounded=0;jumpSize=1;entryX=0.556;entryY=0.053;entryDx=0;entryDy=0;entryPerimeter=0;exitX=0.389;exitY=-0.158;exitDx=0;exitDy=0;exitPerimeter=0;" edge="1" parent="VNNIAKbgCR-motXrMLgF-97" source="VNNIAKbgCR-motXrMLgF-75" target="VNNIAKbgCR-motXrMLgF-83">
          <mxGeometry width="50" height="50" relative="1" as="geometry">
            <mxPoint x="-17" y="128" as="sourcePoint" />
            <mxPoint x="33" y="78" as="targetPoint" />
          </mxGeometry>
        </mxCell>
        <mxCell id="VNNIAKbgCR-motXrMLgF-94" value="" style="endArrow=none;dashed=1;html=1;rounded=0;jumpSize=1;exitX=0.611;exitY=1.036;exitDx=0;exitDy=0;exitPerimeter=0;entryX=0.5;entryY=0.977;entryDx=0;entryDy=0;entryPerimeter=0;" edge="1" parent="VNNIAKbgCR-motXrMLgF-97" source="VNNIAKbgCR-motXrMLgF-80" target="VNNIAKbgCR-motXrMLgF-76">
          <mxGeometry width="50" height="50" relative="1" as="geometry">
            <mxPoint x="61" y="200" as="sourcePoint" />
            <mxPoint x="111" y="150" as="targetPoint" />
          </mxGeometry>
        </mxCell>
        <mxCell id="VNNIAKbgCR-motXrMLgF-100" value="" style="group" vertex="1" connectable="0" parent="1">
          <mxGeometry x="210" y="232.53" width="71" height="39.44" as="geometry" />
        </mxCell>
        <mxCell id="VNNIAKbgCR-motXrMLgF-98" value="&lt;b&gt;flatting&lt;br&gt;&lt;/b&gt;" style="text;html=1;strokeColor=none;fillColor=none;align=center;verticalAlign=middle;whiteSpace=wrap;rounded=0;" vertex="1" parent="VNNIAKbgCR-motXrMLgF-100">
          <mxGeometry width="71" height="30" as="geometry" />
        </mxCell>
        <mxCell id="VNNIAKbgCR-motXrMLgF-99" value="" style="endArrow=classic;html=1;rounded=0;jumpSize=1;" edge="1" parent="VNNIAKbgCR-motXrMLgF-100">
          <mxGeometry width="50" height="50" relative="1" as="geometry">
            <mxPoint x="12" y="39.44" as="sourcePoint" />
            <mxPoint x="60" y="39.44" as="targetPoint" />
          </mxGeometry>
        </mxCell>
        <mxCell id="VNNIAKbgCR-motXrMLgF-105" value="&lt;b&gt;output&lt;br&gt;&lt;/b&gt;" style="text;html=1;strokeColor=none;fillColor=none;align=center;verticalAlign=middle;whiteSpace=wrap;rounded=0;" vertex="1" parent="1">
          <mxGeometry x="420" y="84" width="71" height="30" as="geometry" />
        </mxCell>
        <mxCell id="VNNIAKbgCR-motXrMLgF-106" value="" style="shape=cube;whiteSpace=wrap;html=1;boundedLbl=1;backgroundOutline=1;darkOpacity=0.05;darkOpacity2=0.1;size=70;direction=east;flipH=1;fillColor=#ffe6cc;strokeColor=#99004D;opacity=90;" vertex="1" parent="1">
          <mxGeometry x="-210" y="114" width="78" height="184" as="geometry" />
        </mxCell>
        <mxCell id="VNNIAKbgCR-motXrMLgF-107" value="" style="shape=cube;whiteSpace=wrap;html=1;boundedLbl=1;backgroundOutline=1;darkOpacity=0.05;darkOpacity2=0.1;size=70;direction=east;flipH=1;fillColor=#ffe6cc;strokeColor=#99004D;opacity=90;" vertex="1" parent="1">
          <mxGeometry x="-186" y="171.5" width="24" height="35" as="geometry" />
        </mxCell>
        <mxCell id="VNNIAKbgCR-motXrMLgF-108" value="" style="endArrow=none;dashed=1;html=1;rounded=0;entryX=0;entryY=0;entryDx=24;entryDy=29.5;entryPerimeter=0;opacity=90;strokeColor=#99004D;" edge="1" parent="1" target="VNNIAKbgCR-motXrMLgF-107" source="VNNIAKbgCR-motXrMLgF-2">
          <mxGeometry width="50" height="50" relative="1" as="geometry">
            <mxPoint x="-99" y="172.97000000000003" as="sourcePoint" />
            <mxPoint x="-85" y="297.5" as="targetPoint" />
          </mxGeometry>
        </mxCell>
        <mxCell id="VNNIAKbgCR-motXrMLgF-109" value="" style="endArrow=none;dashed=1;html=1;rounded=0;strokeColor=#99004D;opacity=90;jumpSize=1;exitX=0;exitY=0;exitDx=0;exitDy=5.5;exitPerimeter=0;" edge="1" parent="1" source="VNNIAKbgCR-motXrMLgF-107" target="VNNIAKbgCR-motXrMLgF-2">
          <mxGeometry width="50" height="50" relative="1" as="geometry">
            <mxPoint x="-300" y="428" as="sourcePoint" />
            <mxPoint x="-250" y="378" as="targetPoint" />
          </mxGeometry>
        </mxCell>
        <mxCell id="VNNIAKbgCR-motXrMLgF-110" value="&lt;b&gt;Input Layer&lt;br&gt;&lt;/b&gt;" style="text;html=1;strokeColor=none;fillColor=none;align=center;verticalAlign=middle;whiteSpace=wrap;rounded=0;" vertex="1" parent="1">
          <mxGeometry x="-216" y="72" width="71" height="30" as="geometry" />
        </mxCell>
      </root>
    </mxGraphModel>
  </diagram>
</mxfile>
